<svg width="20" height="21" viewBox="0 0 20 21" fill="none" xmlns="http://www.w3.org/2000/svg">
<path d="M12.6042 18.0833L5.58341 11.0833C5.50008 11 5.44119 10.9097 5.40675 10.8125C5.37175 10.7153 5.35425 10.6111 5.35425 10.5C5.35425 10.3889 5.37175 10.2847 5.40675 10.1875C5.44119 10.0903 5.50008 9.99999 5.58341 9.91666L12.6042 2.89582C12.7987 2.70138 13.0417 2.60416 13.3334 2.60416C13.6251 2.60416 13.8751 2.70832 14.0834 2.91666C14.2917 3.12499 14.3959 3.36805 14.3959 3.64582C14.3959 3.9236 14.2917 4.16666 14.0834 4.37499L7.95841 10.5L14.0834 16.625C14.2779 16.8194 14.3751 17.0589 14.3751 17.3433C14.3751 17.6283 14.2709 17.875 14.0626 18.0833C13.8542 18.2917 13.6112 18.3958 13.3334 18.3958C13.0556 18.3958 12.8126 18.2917 12.6042 18.0833Z" fill="#090937"/>
</svg>
